<?xml version="1.0" standalone="no"?>
<!DOCTYPE svg PUBLIC "-//W3C//DTD SVG 20010904//EN"
 "http://www.w3.org/TR/2001/REC-SVG-20010904/DTD/svg10.dtd">
<svg version="1.0" xmlns="http://www.w3.org/2000/svg"
 width="651.000000pt" height="669.000000pt" viewBox="0 0 651.000000 669.000000"
 preserveAspectRatio="xMidYMid meet">

<g transform="translate(0.000000,669.000000) scale(0.100000,-0.100000)"
fill="#79863c" stroke="none">
<path d="M2830 6105 c-412 -52 -794 -189 -1120 -402 -160 -105 -275 -200 -416
-344 -364 -373 -596 -847 -681 -1389 -22 -144 -25 -526 -5 -670 82 -581 337
-1093 738 -1480 371 -359 812 -576 1359 -671 112 -20 167 -23 390 -23 255 -1
419 8 413 23 -2 5 -48 46 -103 93 -86 73 -133 123 -242 255 -16 19 -34 23
-148 32 -380 30 -719 162 -1030 400 -82 62 -254 230 -330 321 -282 340 -460
756 -506 1188 -15 142 -7 443 16 567 42 230 109 435 206 626 349 688 983 1086
1724 1082 138 -1 196 -6 307 -27 366 -69 683 -232 972 -499 385 -355 620 -828
677 -1362 16 -153 6 -436 -21 -595 -69 -396 -238 -762 -492 -1063 -118 -140
-283 -283 -436 -376 -28 -18 -52 -35 -52 -38 0 -3 42 -3 93 0 111 8 314 -5
454 -28 l103 -18 57 44 c77 57 270 245 349 340 209 250 393 635 468 979 47
216 58 322 59 555 2 309 -30 515 -123 795 -159 484 -450 895 -837 1187 -351
264 -715 418 -1146 484 -176 27 -534 34 -697 14z"/>
<path d="M2701 4855 c-79 -22 -143 -61 -229 -138 -95 -84 -153 -119 -257 -153
-44 -15 -93 -33 -110 -42 -59 -29 -135 -95 -208 -181 -71 -83 -81 -91 -198
-151 -167 -86 -249 -165 -314 -302 -49 -104 -81 -218 -64 -229 6 -4 37 -9 68
-13 79 -9 299 -68 406 -109 417 -159 793 -452 1022 -797 130 -194 194 -374
223 -627 32 -279 156 -521 377 -734 243 -235 641 -441 1028 -532 194 -46 315
-60 515 -59 338 0 617 60 863 183 51 26 177 107 177 114 0 1 -59 0 -130 -3
-145 -5 -244 7 -348 42 -133 46 -204 89 -364 223 -148 124 -267 189 -434 237
-149 43 -261 55 -559 61 -309 7 -417 20 -558 65 -278 89 -401 291 -358 591 54
376 317 737 741 1021 238 159 579 292 830 324 30 3 60 9 66 13 23 12 -35 184
-97 288 -58 96 -133 162 -260 227 -106 55 -122 67 -234 181 -129 131 -175 163
-287 201 -104 36 -175 77 -261 152 -100 88 -167 128 -250 148 -136 34 -267
-22 -359 -154 l-29 -42 -38 47 c-21 27 -54 62 -72 80 -72 68 -195 96 -298 68z
m162 -89 c88 -32 187 -150 187 -224 0 -23 6 -45 15 -52 13 -11 15 -120 15
-869 0 -471 -4 -849 -9 -841 -5 8 -16 58 -25 110 -79 445 -272 998 -500 1435
-58 110 -72 147 -69 171 4 24 -1 37 -18 53 -14 13 -19 25 -13 30 130 121 198
167 273 187 60 16 97 16 144 0z m682 -22 c45 -22 95 -60 198 -151 l29 -25 -22
-20 c-15 -14 -21 -30 -19 -52 2 -22 -11 -57 -44 -117 -226 -414 -432 -1006
-511 -1468 -14 -79 -27 -146 -30 -149 -3 -3 -6 383 -6 857 0 775 2 864 16 878
10 11 14 27 11 47 -3 23 4 44 28 82 94 146 211 186 350 118z m-1181 -260 c4
-16 18 -30 35 -37 24 -9 43 -39 114 -181 199 -398 322 -728 431 -1162 42 -166
86 -414 74 -414 -3 0 -16 28 -29 63 -56 153 -137 306 -272 517 -173 271 -353
496 -584 729 -92 92 -153 161 -153 172 0 11 -12 31 -26 44 l-26 24 40 49 c94
112 173 166 286 195 32 9 61 18 64 21 14 15 40 4 46 -20z m1576 2 c133 -41
196 -84 292 -198 l40 -49 -26 -24 c-14 -13 -26 -34 -26 -46 0 -15 -50 -73
-158 -183 -403 -411 -685 -828 -822 -1216 -47 -132 -51 -105 -15 100 60 342
177 739 316 1066 86 204 236 504 251 504 16 0 58 41 58 57 0 17 2 17 90 -11z
m-2076 -351 c11 -17 29 -27 56 -31 36 -6 56 -23 172 -143 288 -300 502 -578
677 -884 68 -118 153 -296 149 -309 -2 -5 -32 33 -68 84 -131 188 -391 423
-645 583 -193 121 -482 238 -697 281 -49 10 -88 23 -88 28 0 6 20 51 44 101
61 124 126 189 266 260 58 29 108 54 111 54 4 1 14 -10 23 -24z m2606 -30
c138 -69 211 -137 263 -245 20 -41 39 -87 42 -101 6 -25 4 -27 -57 -38 -512
-99 -1070 -458 -1345 -866 -22 -33 -51 -80 -63 -105 -38 -73 -34 -29 5 67 104
252 292 555 514 828 148 182 417 455 448 455 14 0 36 13 51 29 15 16 28 29 30
30 1 0 52 -24 112 -54z"/>
</g>
</svg>
