<?xml version="1.0" standalone="no"?>
<!DOCTYPE svg PUBLIC "-//W3C//DTD SVG 20010904//EN"
 "http://www.w3.org/TR/2001/REC-SVG-20010904/DTD/svg10.dtd">
<svg version="1.0" xmlns="http://www.w3.org/2000/svg"
 width="512.000000pt" height="512.000000pt" viewBox="0 0 512.000000 512.000000"
 preserveAspectRatio="xMidYMid meet">

<g transform="translate(0.000000,512.000000) scale(0.100000,-0.100000)"
fill="#000000" stroke="none">
<path d="M2470 4190 c-417 -33 -790 -213 -1087 -524 -226 -236 -377 -538 -433
-862 -29 -163 -29 -403 -1 -565 74 -425 310 -808 659 -1067 650 -482 1560
-424 2144 136 311 299 485 666 518 1092 51 674 -314 1312 -928 1620 -257 130
-581 193 -872 170z m395 -150 c558 -95 1025 -499 1201 -1037 98 -300 100 -659
4 -953 -172 -530 -603 -919 -1157 -1042 -84 -19 -128 -22 -313 -22 -185 0
-229 3 -313 22 -610 137 -1064 590 -1198 1195 -32 146 -37 417 -11 573 55 322
207 612 442 844 122 120 242 206 395 281 232 113 418 157 677 158 114 1 188
-4 273 -19z"/>
<path d="M2490 3699 c-455 -40 -856 -354 -1009 -791 -45 -129 -63 -244 -63
-388 2 -328 117 -606 347 -835 174 -175 391 -289 624 -331 122 -21 333 -19
446 5 477 101 842 473 931 948 23 122 21 330 -5 448 -128 597 -666 997 -1271
944z m372 -157 c374 -101 660 -387 760 -760 26 -99 36 -321 18 -430 -65 -408
-368 -741 -775 -852 -120 -33 -347 -39 -475 -12 -396 82 -702 372 -811 768
-32 119 -38 346 -11 475 84 409 403 731 812 820 118 26 370 21 482 -9z"/>
<path d="M2518 3139 c-335 -43 -578 -359 -536 -696 48 -392 445 -639 825 -512
166 55 327 216 382 382 128 385 -118 776 -520 827 -46 5 -84 9 -84 9 0 -1 -30
-5 -67 -10z m284 -171 c134 -64 238 -183 273 -312 13 -47 16 -90 13 -163 -3
-88 -7 -106 -40 -176 -88 -184 -248 -287 -447 -287 -201 0 -361 102 -449 287
-34 72 -37 86 -40 183 -3 88 0 116 18 170 42 125 133 231 248 289 86 43 121
50 242 48 98 -2 110 -5 182 -39z"/>
</g>
</svg>
