<?xml version="1.0" encoding="utf-8"?>
<!-- Generator: Adobe Illustrator 29.4.0, SVG Export Plug-In . SVG Version: 9.03 Build 0)  -->
<svg version="1.1" id="Layer_1" xmlns="http://www.w3.org/2000/svg" xmlns:xlink="http://www.w3.org/1999/xlink" x="0px" y="0px"
	 viewBox="0 0 150 150" style="enable-background:new 0 0 150 150;" xml:space="preserve">
<style type="text/css">
	.st0{fill:#79863C;}
</style>
<g>
	<path class="st0" d="M75.009,13.51c-0.556,0.001-1.099,0.225-1.429,0.597l-21.4,23.012c-1.344,1.446-1.304,3.671,0.092,5.068
		c0.724,0.722,1.66,1.102,2.636,1.068c1.011-0.02,1.93-0.441,2.618-1.165l13.825-14.872V61.37
		C71.352,75.934,83.2,87.783,97.764,87.783h3.678l0.233,0.78c1.945,6.482,8.025,11.009,14.788,11.009
		c4.117,0,7.991-1.608,10.911-4.527c2.92-2.92,4.527-6.794,4.527-10.911c0-8.512-6.926-15.436-15.437-15.437
		c-6.761-0.001-12.844,4.525-14.788,11.008l-0.234,0.78l-3.677-0.001c-5.098,0.001-9.896-1.99-13.51-5.605
		c-3.615-3.615-5.605-8.413-5.605-13.51l-0.001-34.171l13.833,14.885c0.68,0.732,1.606,1.146,2.607,1.165
		c1.015,0.017,1.931-0.352,2.648-1.069c1.395-1.396,1.435-3.622,0.092-5.067l-21.39-23.008C76.086,13.727,75.564,13.51,75.009,13.51
		z M108.324,84.133c0-4.488,3.652-8.14,8.14-8.14c4.489,0.001,8.141,3.652,8.14,8.14c0,2.171-0.848,4.215-2.386,5.754
		c-1.539,1.539-3.583,2.386-5.754,2.386s-4.215-0.847-5.754-2.386C109.171,88.349,108.324,86.304,108.324,84.133z"/>
	<path class="st0" d="M69.529,79.081c-0.034-0.046-0.12-0.185-0.204-0.321c-0.981-1.6-1.829-3.287-2.525-5.023
		c-3.612,4.24-9.001,6.748-14.565,6.748h-3.678l-0.232-0.78c-1.946-6.481-8.028-11.008-14.79-11.008
		c-8.512,0-15.437,6.925-15.437,15.437s6.926,15.438,15.438,15.438c6.764,0,12.844-4.528,14.788-11.01l0.234-0.78l3.677,0.001
		c6.354,0,12.499-2.3,17.304-6.477l0.927-0.807c-0.225-0.321-0.447-0.648-0.662-0.978L69.529,79.081z M41.677,84.134
		c0,2.171-0.848,4.214-2.387,5.753s-3.582,2.387-5.753,2.387c-4.488,0-8.141-3.651-8.141-8.14c0-2.171,0.848-4.215,2.387-5.753
		c0.001-0.001,0.001-0.001,0.001-0.001c1.539-1.539,3.583-2.386,5.754-2.386s4.215,0.847,5.754,2.386
		C40.829,79.919,41.677,81.963,41.677,84.134z"/>
	<path class="st0" d="M79.428,106.264l-0.779-0.235V88.677c-2.788-1.956-5.234-4.295-7.297-6.975l0.001,24.325l-0.777,0.237
		c-2.484,0.746-4.681,2.098-6.446,3.863c-2.842,2.842-4.565,6.754-4.565,10.926c0,8.512,6.925,15.438,15.436,15.438
		s15.438-6.926,15.438-15.438C90.437,114.29,85.91,108.209,79.428,106.264L79.428,106.264z M83.14,121.052
		c0,2.171-0.848,4.215-2.386,5.754c-1.539,1.539-3.583,2.387-5.754,2.387c-4.488,0.001-8.14-3.651-8.14-8.14
		c0.001-4.487,3.652-8.14,8.141-8.141C79.489,112.913,83.141,116.564,83.14,121.052z"/>
</g>
</svg>
